<mxfile host="app.diagrams.net" modified="2024-03-27T11:39:51.905Z" agent="Mozilla/5.0 (Windows NT 10.0; Win64; x64) AppleWebKit/537.36 (KHTML, like Gecko) Chrome/120.0.0.0 Safari/537.36" etag="CNeTpNMQTv4eBKXlIkip" version="24.0.4" type="github">
  <diagram name="第 1 页" id="bzBQHWBgV5mlvqt9g90e">
    <mxGraphModel dx="819" dy="-401" grid="1" gridSize="10" guides="1" tooltips="1" connect="1" arrows="1" fold="1" page="1" pageScale="1" pageWidth="1169" pageHeight="827" math="0" shadow="0">
      <root>
        <mxCell id="0" />
        <mxCell id="1" parent="0" />
        <mxCell id="LjgOpnGmxGzKYRoascXe-18" value="CPU阵列" style="swimlane;fontSize=14;fillColor=#fff2cc;gradientColor=#ffd966;strokeColor=#d6b656;" vertex="1" parent="1">
          <mxGeometry x="440" y="950" width="350" height="223" as="geometry" />
        </mxCell>
        <mxCell id="LjgOpnGmxGzKYRoascXe-19" value="地&lt;br&gt;址&lt;br&gt;读&lt;br&gt;写" style="edgeStyle=orthogonalEdgeStyle;rounded=0;orthogonalLoop=1;jettySize=auto;html=1;exitX=1;exitY=0.5;exitDx=0;exitDy=0;entryX=0;entryY=0.5;entryDx=0;entryDy=0;strokeWidth=2;fontSize=14;startArrow=classic;startFill=1;" edge="1" parent="LjgOpnGmxGzKYRoascXe-18" source="LjgOpnGmxGzKYRoascXe-20" target="LjgOpnGmxGzKYRoascXe-42">
          <mxGeometry relative="1" as="geometry" />
        </mxCell>
        <mxCell id="LjgOpnGmxGzKYRoascXe-20" value="调度核 * 1" style="swimlane;fontSize=14;fillColor=#dae8fc;strokeColor=#6c8ebf;" vertex="1" parent="LjgOpnGmxGzKYRoascXe-18">
          <mxGeometry x="21" y="53" width="119" height="140" as="geometry" />
        </mxCell>
        <mxCell id="LjgOpnGmxGzKYRoascXe-97" value="响应调度" style="rounded=1;whiteSpace=wrap;html=1;fontSize=14;fillColor=#dae8fc;strokeColor=#6c8ebf;" vertex="1" parent="LjgOpnGmxGzKYRoascXe-20">
          <mxGeometry x="19" y="39.5" width="80" height="31" as="geometry" />
        </mxCell>
        <mxCell id="LjgOpnGmxGzKYRoascXe-98" value="下发状态" style="rounded=1;whiteSpace=wrap;html=1;fontSize=14;fillColor=#dae8fc;strokeColor=#6c8ebf;" vertex="1" parent="LjgOpnGmxGzKYRoascXe-20">
          <mxGeometry x="19" y="89.5" width="80" height="31" as="geometry" />
        </mxCell>
        <mxCell id="LjgOpnGmxGzKYRoascXe-42" value="计算核 * N" style="swimlane;fontSize=14;fillColor=#b0e3e6;strokeColor=#0e8088;" vertex="1" parent="LjgOpnGmxGzKYRoascXe-18">
          <mxGeometry x="190" y="53" width="134" height="141" as="geometry" />
        </mxCell>
        <mxCell id="LjgOpnGmxGzKYRoascXe-99" value="状态匹配" style="rounded=1;whiteSpace=wrap;html=1;fontSize=14;fillColor=#b0e3e6;strokeColor=#0e8088;" vertex="1" parent="LjgOpnGmxGzKYRoascXe-42">
          <mxGeometry x="24" y="40.5" width="80" height="31" as="geometry" />
        </mxCell>
        <mxCell id="LjgOpnGmxGzKYRoascXe-100" value="响应动作" style="rounded=1;whiteSpace=wrap;html=1;fontSize=14;fillColor=#b0e3e6;strokeColor=#0e8088;" vertex="1" parent="LjgOpnGmxGzKYRoascXe-42">
          <mxGeometry x="24" y="90.5" width="80" height="31" as="geometry" />
        </mxCell>
        <mxCell id="LjgOpnGmxGzKYRoascXe-64" value="地址读写" style="edgeStyle=orthogonalEdgeStyle;rounded=0;orthogonalLoop=1;jettySize=auto;html=1;exitX=1;exitY=0.5;exitDx=0;exitDy=0;fontSize=14;startArrow=classic;startFill=1;strokeWidth=2;entryX=0;entryY=0.5;entryDx=0;entryDy=0;" edge="1" parent="1" source="LjgOpnGmxGzKYRoascXe-66" target="LjgOpnGmxGzKYRoascXe-18">
          <mxGeometry x="0.0019" relative="1" as="geometry">
            <mxPoint x="265" y="1220" as="sourcePoint" />
            <mxPoint x="570" y="1007" as="targetPoint" />
            <mxPoint as="offset" />
          </mxGeometry>
        </mxCell>
        <mxCell id="LjgOpnGmxGzKYRoascXe-65" value="扣板 / PC" style="swimlane;fontSize=14;fillColor=#ffcd28;gradientColor=#ffa500;strokeColor=#d79b00;" vertex="1" parent="1">
          <mxGeometry x="20" y="867" width="300" height="363" as="geometry" />
        </mxCell>
        <mxCell id="LjgOpnGmxGzKYRoascXe-66" value="SC_TOP" style="swimlane;fontSize=14;fillColor=#e6d0de;gradientColor=#d5739d;strokeColor=#996185;" vertex="1" parent="LjgOpnGmxGzKYRoascXe-65">
          <mxGeometry x="30" y="191.5" width="246" height="139" as="geometry" />
        </mxCell>
        <mxCell id="LjgOpnGmxGzKYRoascXe-67" value="地址读写" style="rounded=1;whiteSpace=wrap;html=1;fontSize=14;fillColor=#bac8d3;strokeColor=#23445d;" vertex="1" parent="LjgOpnGmxGzKYRoascXe-66">
          <mxGeometry x="136" y="95" width="80" height="29" as="geometry" />
        </mxCell>
        <mxCell id="LjgOpnGmxGzKYRoascXe-89" style="edgeStyle=orthogonalEdgeStyle;rounded=0;orthogonalLoop=1;jettySize=auto;html=1;fontSize=14;startArrow=none;startFill=0;" edge="1" parent="LjgOpnGmxGzKYRoascXe-66" source="LjgOpnGmxGzKYRoascXe-90" target="LjgOpnGmxGzKYRoascXe-67">
          <mxGeometry relative="1" as="geometry" />
        </mxCell>
        <mxCell id="LjgOpnGmxGzKYRoascXe-90" value="地址映射" style="rounded=1;whiteSpace=wrap;html=1;fontSize=14;fillColor=#fad7ac;strokeColor=#b46504;" vertex="1" parent="LjgOpnGmxGzKYRoascXe-66">
          <mxGeometry x="136" y="37" width="80" height="31" as="geometry" />
        </mxCell>
        <mxCell id="LjgOpnGmxGzKYRoascXe-91" value="调度传递" style="rounded=1;whiteSpace=wrap;html=1;fontSize=14;fillColor=#f0a30a;strokeColor=#BD7000;fontColor=#000000;" vertex="1" parent="LjgOpnGmxGzKYRoascXe-66">
          <mxGeometry x="26" y="37" width="80" height="31" as="geometry" />
        </mxCell>
        <mxCell id="LjgOpnGmxGzKYRoascXe-92" value="功能对接" style="rounded=1;whiteSpace=wrap;html=1;fontSize=14;fillColor=#f0a30a;strokeColor=#BD7000;fontColor=#000000;" vertex="1" parent="LjgOpnGmxGzKYRoascXe-66">
          <mxGeometry x="27" y="94" width="80" height="31" as="geometry" />
        </mxCell>
        <mxCell id="LjgOpnGmxGzKYRoascXe-93" value="传递激励" style="edgeStyle=orthogonalEdgeStyle;rounded=0;orthogonalLoop=1;jettySize=auto;html=1;fontSize=14;startArrow=none;startFill=0;" edge="1" parent="LjgOpnGmxGzKYRoascXe-65" source="LjgOpnGmxGzKYRoascXe-95" target="LjgOpnGmxGzKYRoascXe-66">
          <mxGeometry relative="1" as="geometry">
            <Array as="points">
              <mxPoint x="52" y="98" />
            </Array>
          </mxGeometry>
        </mxCell>
        <mxCell id="LjgOpnGmxGzKYRoascXe-94" value="波形、配置加速等" style="edgeStyle=orthogonalEdgeStyle;rounded=0;orthogonalLoop=1;jettySize=auto;html=1;strokeWidth=1;fontSize=14;startArrow=classic;startFill=1;" edge="1" parent="LjgOpnGmxGzKYRoascXe-65" source="LjgOpnGmxGzKYRoascXe-95" target="LjgOpnGmxGzKYRoascXe-66">
          <mxGeometry relative="1" as="geometry" />
        </mxCell>
        <mxCell id="LjgOpnGmxGzKYRoascXe-95" value="UniBench" style="verticalAlign=middle;align=center;spacingTop=8;spacingLeft=2;spacingRight=12;shape=cube;size=10;direction=south;fontStyle=5;html=1;fontSize=16;fillColor=#dae8fc;gradientColor=#7ea6e0;strokeColor=#6c8ebf;" vertex="1" parent="LjgOpnGmxGzKYRoascXe-65">
          <mxGeometry x="85" y="43.5" width="136" height="86" as="geometry" />
        </mxCell>
        <mxCell id="LjgOpnGmxGzKYRoascXe-96" value="返回结果" style="edgeStyle=orthogonalEdgeStyle;rounded=0;orthogonalLoop=1;jettySize=auto;html=1;fontSize=14;startArrow=none;startFill=0;exitX=0.859;exitY=0;exitDx=0;exitDy=0;entryX=0.615;entryY=0.005;entryDx=0;entryDy=0;entryPerimeter=0;exitPerimeter=0;" edge="1" parent="LjgOpnGmxGzKYRoascXe-65" source="LjgOpnGmxGzKYRoascXe-66" target="LjgOpnGmxGzKYRoascXe-95">
          <mxGeometry relative="1" as="geometry">
            <mxPoint x="451" y="112.5" as="sourcePoint" />
            <mxPoint x="58.999999999999886" y="198.5" as="targetPoint" />
          </mxGeometry>
        </mxCell>
      </root>
    </mxGraphModel>
  </diagram>
</mxfile>
